<?xml version="1.0" encoding="UTF-8" standalone="no"?>
<!-- Uploaded to: SVG Repo, www.svgrepo.com, Generator: SVG Repo Mixer Tools -->

<svg
   width="800px"
   height="800px"
   viewBox="0 0 24 24"
   fill="none"
   version="1.1"
   id="svg2"
   xmlns="http://www.w3.org/2000/svg"
   xmlns:svg="http://www.w3.org/2000/svg">
  <defs
     id="defs2" />
  <g
     id="g2"
     transform="matrix(1.2427307,0,0,1.2427307,-2.9127686,-2.9127686)">
    <path
       d="m 19.6872,14.0931 0.1834,-1.7047 c 0.0978,-0.9095 0.1624,-1.5101 0.1117,-1.8885 L 20,10.5 c 0.8284,0 1.5,-0.67157 1.5,-1.5 0,-0.82843 -0.6716,-1.5 -1.5,-1.5 -0.8284,0 -1.5,0.67157 -1.5,1.5 0,0.37466 0.1374,0.71724 0.3645,0.98013 -0.3261,0.20127 -0.7523,0.62587 -1.394,1.26497 v 0 c -0.4943,0.4924 -0.7415,0.7386 -1.0172,0.7768 -0.1528,0.0211 -0.3084,-6e-4 -0.4495,-0.0627 C 15.7492,11.847 15.5794,11.5427 15.2399,10.934 L 13.4505,7.7254 C 13.241,7.34987 13.0657,7.03557 12.9077,6.78265 13.556,6.45187 14,5.77778 14,5 14,3.89543 13.1046,3 12,3 10.8954,3 10,3.89543 10,5 10,5.77778 10.444,6.45187 11.0923,6.78265 10.9343,7.03559 10.759,7.34984 10.5495,7.7254 L 8.76006,10.934 C 8.42056,11.5427 8.25081,11.847 7.99621,11.9592 7.85514,12.0213 7.69947,12.043 7.5467,12.0219 7.27097,11.9837 7.02381,11.7375 6.5295,11.2451 5.88787,10.606 5.46156,10.1814 5.13553,9.98012 5.36264,9.71724 5.5,9.37466 5.5,9 5.5,8.17157 4.82843,7.5 4,7.5 3.17157,7.5 2.5,8.17157 2.5,9 c 0,0.82843 0.67157,1.5 1.5,1.5 l 0.01771,-10e-5 c -0.05069,0.3784 0.01391,0.979 0.11174,1.8885 l 0.18335,1.7047 c 0.10178,0.9462 0.18641,1.8465 0.29007,2.6569 H 19.3971 c 0.1037,-0.8104 0.1883,-1.7107 0.2901,-2.6569 z"
       fill="#1C274C"
       id="path1"
       style="fill:#e3bd38;fill-opacity:1" />
    <path
       d="m 10.9121,21 h 2.1758 c 2.836,0 4.2539,0 5.2,-0.8468 0.413,-0.3697 0.6744,-1.036 0.8631,-1.9032 H 4.84896 c 0.18869,0.8672 0.45017,1.5335 0.86312,1.9032 C 6.65817,21 8.07613,21 10.9121,21 Z"
       fill="#1C274C"
       id="path2"
       style="fill:#e3bd38;fill-opacity:1" />
  </g>
</svg>
